<svg xmlns="http://www.w3.org/2000/svg" width="18.00" height="15.00" viewBox="344.50 158.00 18.00 15.00" fill="none"><defs><linearGradient id="paint0_linear_22_791" x1="443.913" y1="125.878" x2="454.794" y2="125.878" gradientUnits="userSpaceOnUse">
<stop stop-opacity="0.1" />
<stop offset="1" stop-opacity="0.2" />
</linearGradient>
<clipPath id="clip0_22_791">
<rect width="1440" height="1024" fill="white" />
</clipPath>
<clipPath id="clip1_22_791">
<rect width="12" height="12" fill="white" transform="translate(318.5 84)" />
</clipPath>
<clipPath id="clip2_22_791">
<rect width="11" height="11" fill="white" transform="translate(442 83)" />
</clipPath>
<clipPath id="clip3_22_791">
<rect width="12" height="12" fill="white" transform="translate(315.375 120)" />
</clipPath>
<clipPath id="clip4_22_791">
<rect width="11" height="8" fill="white" transform="translate(443.844 121.5)" />
</clipPath>
<clipPath id="clip5_22_791">
<rect width="54.0257" height="54.0257" fill="white" transform="translate(65 681)" />
</clipPath>
<clipPath id="clip6_22_791">
<rect width="54.0257" height="54.0257" fill="white" transform="translate(144.231 681)" />
</clipPath>
<clipPath id="clip7_22_791">
<rect width="54.0257" height="54.0257" fill="white" transform="translate(228.292 681)" />
</clipPath>
<clipPath id="clip8_22_791">
<rect width="54.0257" height="54.0257" fill="white" transform="translate(443.114 681)" />
</clipPath>
<clipPath id="clip9_22_791">
<rect width="54.0257" height="54.0257" fill="white" transform="translate(228.292 757.987)" />
</clipPath>
<clipPath id="clip10_22_791">
<rect width="54.0257" height="54.0257" fill="white" transform="translate(311.185 757.987)" />
</clipPath>
<clipPath id="clip11_22_791">
<rect width="161.605" height="32.5104" fill="white" transform="translate(155.567 836.789)" />
</clipPath>
<clipPath id="clip12_22_791">
<rect width="54.0257" height="54.0257" fill="white" transform="translate(78.8501 887.974)" />
</clipPath>
<clipPath id="clip13_22_791">
<rect width="54.0257" height="54.0257" fill="white" transform="translate(151.236 887.974)" />
</clipPath>
</defs><path d="M353.5 167.833V158.5M356.9 164.722L353.5 167.833L350.1 164.722M345 169.389L345.528 171.322C345.62 171.658 345.832 171.957 346.131 172.17C346.43 172.384 346.798 172.5 347.177 172.5H359.822C360.201 172.5 360.57 172.384 360.868 172.17C361.167 171.957 361.379 171.658 361.471 171.322L362 169.389" stroke="white" stroke-width="2" stroke-linecap="round" stroke-linejoin="round" />
</svg>