<svg version="1.1" id="Layer_1" xmlns="http://www.w3.org/2000/svg" xmlns:xlink="http://www.w3.org/1999/xlink" x="0px" y="0px"
	 width="100%" viewBox="0 0 272 262" enable-background="new 0 0 272 262" xml:space="preserve">
<path fill="#070707" opacity="1.000000" stroke="none" 
	d="
M185.000000,263.000000 
	C123.333336,263.000000 62.166668,263.000000 1.000000,263.000000 
	C1.000000,175.666672 1.000000,88.333336 1.000000,1.000000 
	C91.666664,1.000000 182.333328,1.000000 273.000000,1.000000 
	C273.000000,88.333336 273.000000,175.666672 273.000000,263.000000 
	C243.833328,263.000000 214.666672,263.000000 185.000000,263.000000 
M110.540329,107.532585 
	C95.934975,107.495918 95.417946,106.978378 95.423637,92.398888 
	C95.424614,89.899277 95.429161,87.399666 95.427368,84.900055 
	C95.415787,68.735916 95.447159,52.571568 95.371613,36.407722 
	C95.334259,28.413784 93.694313,26.691761 85.716934,26.528460 
	C77.721909,26.364796 69.717064,26.346544 61.723442,26.544233 
	C54.059788,26.733759 52.060040,28.935017 52.044483,36.623215 
	C52.010082,53.620506 52.153851,70.619286 51.966702,87.614609 
	C51.887203,94.834045 54.730461,100.042389 60.839249,103.729836 
	C66.384583,107.077164 71.909981,110.470634 77.297005,114.064354 
	C88.521988,121.552628 100.558479,125.645950 114.308266,125.248047 
	C132.956924,124.708359 151.632782,125.157990 170.287949,124.760002 
	C175.144928,124.656380 180.535172,124.044487 184.699509,121.825264 
	C196.548096,115.511032 208.141937,108.619003 219.261200,101.103844 
	C222.158920,99.145378 224.376022,94.118927 224.478882,90.433830 
	C224.994751,71.951607 224.815277,53.445827 224.635651,34.950703 
	C224.576660,28.876747 222.476013,26.864292 216.415634,26.635822 
	C209.093323,26.359779 201.754623,26.449795 194.423584,26.489340 
	C182.388672,26.554256 181.668182,27.289795 181.655228,39.206047 
	C181.634583,58.203072 181.699722,77.200378 181.614532,96.197060 
	C181.572784,105.506607 179.873093,107.115456 170.517853,107.453163 
	C169.186371,107.501228 167.851913,107.468758 166.518829,107.470268 
	C148.188751,107.490990 129.858673,107.511124 110.540329,107.532585 
M127.500519,132.484589 
	C121.834557,132.480072 116.167244,132.551788 110.502975,132.451675 
	C103.459221,132.327194 96.390724,132.445267 90.157242,136.139175 
	C79.290466,142.578720 68.303970,148.903000 58.036343,156.214645 
	C54.905979,158.443787 52.420925,163.704041 52.293343,167.661652 
	C51.702950,185.975098 51.983585,204.319046 52.093201,222.651215 
	C52.127537,228.393524 54.926052,231.083527 60.796131,231.201660 
	C68.459587,231.355927 76.128044,231.290390 83.794243,231.272964 
	C93.855896,231.250076 95.371117,229.765823 95.393661,219.688614 
	C95.437294,200.189255 95.393631,180.689682 95.441505,161.190338 
	C95.464813,151.696228 97.080933,150.068924 106.463120,150.052795 
	C126.795822,150.017822 147.128616,150.036987 167.461380,150.041672 
	C180.684937,150.044708 181.643829,151.008698 181.653778,164.215759 
	C181.668335,183.548523 181.616852,202.881668 181.732758,222.213821 
	C181.775101,229.279373 183.650360,231.114700 190.675018,231.235703 
	C198.838882,231.376373 207.008347,231.358246 215.172928,231.240143 
	C222.349762,231.136337 224.634186,228.905807 224.689896,221.529724 
	C224.823318,203.864502 224.814240,186.197433 224.732178,168.531738 
	C224.704041,162.472244 222.203873,157.669662 216.815674,154.433075 
	C210.687973,150.752258 204.735031,146.781769 198.639191,143.046387 
	C189.953400,137.723938 181.095993,132.856567 170.462357,132.809692 
	C156.474884,132.748032 142.487793,132.596725 127.500519,132.484589 
z"/>
<path fill="#FBFBFB" opacity="1.000000" stroke="none" 
	d="
M111.034470,107.531998 
	C129.858673,107.511124 148.188751,107.490990 166.518829,107.470268 
	C167.851913,107.468758 169.186371,107.501228 170.517853,107.453163 
	C179.873093,107.115456 181.572784,105.506607 181.614532,96.197060 
	C181.699722,77.200378 181.634583,58.203072 181.655228,39.206047 
	C181.668182,27.289795 182.388672,26.554256 194.423584,26.489340 
	C201.754623,26.449795 209.093323,26.359779 216.415634,26.635822 
	C222.476013,26.864292 224.576660,28.876747 224.635651,34.950703 
	C224.815277,53.445827 224.994751,71.951607 224.478882,90.433830 
	C224.376022,94.118927 222.158920,99.145378 219.261200,101.103844 
	C208.141937,108.619003 196.548096,115.511032 184.699509,121.825264 
	C180.535172,124.044487 175.144928,124.656380 170.287949,124.760002 
	C151.632782,125.157990 132.956924,124.708359 114.308266,125.248047 
	C100.558479,125.645950 88.521988,121.552628 77.297005,114.064354 
	C71.909981,110.470634 66.384583,107.077164 60.839249,103.729836 
	C54.730461,100.042389 51.887203,94.834045 51.966702,87.614609 
	C52.153851,70.619286 52.010082,53.620506 52.044483,36.623215 
	C52.060040,28.935017 54.059788,26.733759 61.723442,26.544233 
	C69.717064,26.346544 77.721909,26.364796 85.716934,26.528460 
	C93.694313,26.691761 95.334259,28.413784 95.371613,36.407722 
	C95.447159,52.571568 95.415787,68.735916 95.427368,84.900055 
	C95.429161,87.399666 95.424614,89.899277 95.423637,92.398888 
	C95.417946,106.978378 95.934975,107.495918 111.034470,107.531998 
z"/>
<path fill="#FCFCFC" opacity="1.000000" stroke="none" 
	d="
M128.000534,132.484283 
	C142.487793,132.596725 156.474884,132.748032 170.462357,132.809692 
	C181.095993,132.856567 189.953400,137.723938 198.639191,143.046387 
	C204.735031,146.781769 210.687973,150.752258 216.815674,154.433075 
	C222.203873,157.669662 224.704041,162.472244 224.732178,168.531738 
	C224.814240,186.197433 224.823318,203.864502 224.689896,221.529724 
	C224.634186,228.905807 222.349762,231.136337 215.172928,231.240143 
	C207.008347,231.358246 198.838882,231.376373 190.675018,231.235703 
	C183.650360,231.114700 181.775101,229.279373 181.732758,222.213821 
	C181.616852,202.881668 181.668335,183.548523 181.653778,164.215759 
	C181.643829,151.008698 180.684937,150.044708 167.461380,150.041672 
	C147.128616,150.036987 126.795822,150.017822 106.463120,150.052795 
	C97.080933,150.068924 95.464813,151.696228 95.441505,161.190338 
	C95.393631,180.689682 95.437294,200.189255 95.393661,219.688614 
	C95.371117,229.765823 93.855896,231.250076 83.794243,231.272964 
	C76.128044,231.290390 68.459587,231.355927 60.796131,231.201660 
	C54.926052,231.083527 52.127537,228.393524 52.093201,222.651215 
	C51.983585,204.319046 51.702950,185.975098 52.293343,167.661652 
	C52.420925,163.704041 54.905979,158.443787 58.036343,156.214645 
	C68.303970,148.903000 79.290466,142.578720 90.157242,136.139175 
	C96.390724,132.445267 103.459221,132.327194 110.502975,132.451675 
	C116.167244,132.551788 121.834557,132.480072 128.000534,132.484283 
z"/>
</svg>